<svg width="213" height="101">
<g id="SvgjsG1809" featurekey="text1" fill="#faf5f5" transform="matrix(2.511398167414033,0,0,2.511398167414033,2.3979697470195203,2.9354235395946944)"><path d="M0.69336 10.000375 l4.248 0 c1.7773 0 3.0013 0.60222 3.6719 1.8066 c0.55989 0.94401 0.83984 2.5032 0.83984 4.6777 l0.41992 0 l0 3.3398 l-4.1309 0 l0 -0.37109 l1.2891 0 l0 -2.9688 l-0.37109 0 l0 -1.2207 c0 -1.3737 -0.30599 -2.2493 -0.91797 -2.627 c-0.36458 -0.20833 -0.944 -0.3125 -1.7383 -0.3125 l-0.56641 0 l0 4.0918 l0.38086 0 l0 3.4082 l-2.8027 0 l0 -3.1445 l-0.32227 0 l0 -6.6797 z M6.7285 18.789075 l0.13672 0 l0 0.35156 l0.078125 0 l0 0.11719 l-0.078125 0 l0 0.14648 l-0.13672 0 l0 -0.14648 l-0.25391 0 l0 -0.087891 c0.16927 -0.23438 0.25391 -0.36133 0.25391 -0.38086 z M6.6113 19.140575 l0.11719 0 l0 -0.13672 c-0.019531 0 -0.058594 0.045576 -0.11719 0.13672 z M3.9551 19.121075 l0.13672 -0.000019073 c0.019531 0 0.068359 0.055342 0.14648 0.16602 c0.065107 -0.078125 0.097656 -0.13347 0.097656 -0.16602 l0.15625 0 l0 0.019531 c-0.10417 0.14974 -0.15625 0.24414 -0.15625 0.2832 l0.18555 0.30273 l-0.18555 0 c0 -0.05208 -0.039063 -0.11393 -0.11719 -0.18554 c-0.058594 0.11719 -0.10742 0.17903 -0.14648 0.18555 l-0.13672 0 c0.10417 -0.1888 0.17253 -0.28971 0.20508 -0.30272 z M-0.55665 19.824175 l1.2695 0 l0 0.44922 l3.1055 0 l0 0.91797 l1.9238 0 l0 -0.91797 l4.1309 0 l0 0.91797 l-2.8418 0 l0 2.4902 l-3.2129 0 l0 0.30273 l-3.0859 0 c-0.026045 0 -0.039063 -0.016279 -0.039063 -0.048828 l0 -3.6621 l-1.25 0 l0 -0.44922 z M3.8184 19.824175 l1.9238 0 l0 0.44922 l-1.9238 0 l0 -0.44922 z M9.873 19.824175 l2.7539 0 l0 0.44922 l-2.7539 0 l0 -0.44922 z M7.3633 21.279275 l0.16601 0 c0.11067 0.30599 0.17903 0.51758 0.20508 0.63477 l-0.11719 0 c-0.026045 0 -0.048828 -0.045576 -0.068359 -0.13672 l-0.18555 0 c-0.032549 0 -0.055332 0.045576 -0.06835 0.13672 l-0.14648 0 l0 -0.019531 c0 -0.013018 0.071611 -0.2181 0.21484 -0.61523 z M7.9004 21.279275 l0.14648 0.0000095367 l0.11719 0.40039 l0.019531 0 c0 -0.026045 0.039063 -0.15951 0.11719 -0.4004 l0.14648 0 c0 0.05208 -0.065107 0.26367 -0.19531 0.63477 l-0.13672 0 c-0.039063 0 -0.11067 -0.21159 -0.21484 -0.63477 z M8.6816 21.279275 l0.16602 0 l0 0.63477 l-0.16602 0 l0 -0.63477 z M9.1211 21.279275 l0.26367 -0.0000095367 c0.20183 0 0.30273 0.11719 0.30273 0.35156 c0 0.16276 -0.10091 0.25717 -0.30273 0.28321 l-0.26367 0 l0 -0.63477 z M9.2871 21.425775 l0 0.35156 l0.14648 0 c0.019531 0 0.048828 -0.032549 0.087891 -0.097656 l0 -0.16602 c0 -0.019531 -0.029297 -0.048828 -0.087891 -0.087891 l-0.14648 0 z M7.4316 21.474575 c0 0.019531 -0.016279 0.081377 -0.048828 0.18555 l0.11719 0 c-0.026045 -0.10417 -0.039063 -0.16602 -0.039063 -0.18555 l-0.029297 0 z M11.640621875 10.000375 l6.8945 0 l0 2.2852 c0 0.032549 -0.016279 0.048828 -0.048828 0.048828 l-4.0918 0 l0 3.0371 l3.6719 0 l0 0.019531 c0 0.091143 -0.016279 0.58594 -0.048828 1.4844 c-0.013018 0 -0.019531 0.0097656 -0.019531 0.029297 l0.16602 0 l0 0.70313 l-3.1836 0 l0 2.8711 l-0.84961 0 l0 0.2832 l0.84961 0 l0 0.86914 l3.6035 0 l0 0.33203 l-0.2832 0 l0 1.7188 l-4.3066 0 l0 0.30273 l-2.0508 0 l0 -5.0098 l-0.30273 0 l0 -1.7676 l-2.2363 0 l0 -0.30273 l2.2363 0 l0 -6.9043 z M11.660121875 16.904275 l0 0.30273 l1.1523 0 l0 -0.30273 l-1.1523 0 z M15.195321875000001 20.927775 l0.16602 -0.0000095367 l0 0.23438 l0.019531 0 c0 -0.045576 0.071611 -0.1237 0.21484 -0.23438 l0.16602 0 l-0.23438 0.25391 l0.25391 0.38086 l-0.16602 0 c-0.1237 -0.17578 -0.19206 -0.26367 -0.20508 -0.26367 c-0.032549 0.0065136 -0.048828 0.022793 -0.048828 0.048838 l0 0.21484 l-0.16602 0 l0 -0.63477 z M16.015621875 20.927775 l0.33203 0 c0.10417 0 0.17578 0.061846 0.21484 0.18555 c0 0.019531 -0.032549 0.074873 -0.097656 0.16602 c0.045576 0 0.078125 0.094404 0.097656 0.2832 l-0.11719 0 c-0.032549 0 -0.058594 -0.078125 -0.078125 -0.23438 l-0.18555 0 l0 0.23438 l-0.16602 0 l0 -0.63477 z M17.080121875 20.927775 l0.0879 -0.0000095367 c0.14323 0 0.23112 0.094404 0.26367 0.2832 l0 0.087891 c0 0.05208 -0.022783 0.10742 -0.068359 0.16602 l0 0.029297 c0.045576 0 0.068359 0.013018 0.068359 0.039063 s-0.022783 0.05209 -0.068359 0.078135 c-0.026045 0 -0.05209 -0.026045 -0.078135 -0.078125 l-0.11719 0.029297 l-0.087891 0 c-0.15625 0 -0.24414 -0.11719 -0.26367 -0.35156 c0.045576 -0.1888 0.13347 -0.2832 0.26367 -0.2832 z M16.982421875 21.210975 l0 0.068369 c0 0.11067 0.055342 0.16602 0.16602 0.16602 l0.019531 0 l0 -0.029297 l-0.039063 0 l0 -0.019531 c0 -0.026045 0.022783 -0.048828 0.068359 -0.068359 l0.068359 0.039063 c0 -0.0065136 0.0065136 -0.05209 0.019531 -0.13673 c-0.0065136 -0.1237 -0.068359 -0.18555 -0.18555 -0.18555 c-0.078125 0.019531 -0.11719 0.074873 -0.11719 0.16602 z M16.181621875 21.064475 l0 0.14648 l0.16602 0 c0.032549 0 0.048828 -0.016279 0.048828 -0.048828 l0 -0.048828 c0 -0.032549 -0.016279 -0.048828 -0.048828 -0.048828 l-0.16602 0 z M18.447221875 22.099575 l0.13672 0 l0 0.029297 c0 0.27995 -0.022783 0.41992 -0.068359 0.41992 s-0.068359 -0.10091 -0.068359 -0.30273 l0 -0.14648 z M18.447221875 22.568375 l0.13672 0 l0 0.14648 l-0.13672 0 l0 -0.14648 z M24.54103125 9.990375 c1.9531 0 3.1836 0.60872 3.6914 1.8262 c0.14323 0.29948 0.21484 0.49805 0.21484 0.5957 l-1.2305 0 l0 0.37109 l1.3184 0 l0 -0.019531 c0 -0.065107 -0.029297 -0.18229 -0.087891 -0.35156 l2.2559 0 l0 0.37109 l-2.1387 0 l0 0.029297 c0.11067 0.52083 0.1888 1.084 0.23438 1.6895 c0 0.032549 -0.85612 0.094395 -2.5684 0.18554 l0 -0.019531 c0 -1.556 -0.53386 -2.334 -1.6016 -2.334 l-0.27344 0 c-0.80078 0 -1.2891 0.33854 -1.4648 1.0156 c-0.14323 0.57292 -0.21484 1.3249 -0.21484 2.2559 l0 1.9043 l-0.019531 0.2832 l-0.88867 0 l0 0.44922 l0.88867 0 l0 3.3887 l3.7695 0 l0 -3.5254 l2.1582 0 l0 3.5254 l-1.2012 0 l0 2.168 l-2.5098 0 l0 0.18555 l-1.9531 0 l0 -0.18555 l-1.9824 0 l0 -1.084 l1.3184 0 l0 -0.46875 l-1.9727 0 l0 -1.6016 l-0.84961 0 l0 -1.9727 l0.44922 0 c-0.019531 -0.82031 -0.029297 -1.4648 -0.029297 -1.9336 c0 -2.1289 0.10417 -3.47 0.3125 -4.0234 c0.1888 -0.63802 0.5013 -1.1882 0.9375 -1.6504 c0.77474 -0.71614 1.9206 -1.0742 3.4375 -1.0742 z M22.84183125 20.927775 l0.11719 0 l0 0.48828 l0.2832 0 l0 0.14648 l-0.40039 0 c-0.026045 0 -0.039063 -0.016279 -0.039063 -0.048828 l0 -0.53711 c0 -0.032549 0.013018 -0.048828 0.039063 -0.048828 z M25.78123125 20.927775 l0.14649 0.0000095367 c0.078125 0.065107 0.11719 0.12695 0.11719 0.18555 c0.013018 0 0.068359 -0.061846 0.16602 -0.18555 l0.11719 0 l0 0.048828 c-0.11067 0.14323 -0.16602 0.24414 -0.16602 0.30273 c0.019531 0 0.081377 0.084639 0.18555 0.25391 l0 0.029297 l-0.13672 0 l-0.16602 -0.18555 c-0.058594 0.11067 -0.10417 0.17252 -0.13672 0.18554 l-0.14648 0 c0.032549 -0.065107 0.10416 -0.17578 0.21483 -0.33203 l-0.19531 -0.2832 l0 -0.019531 z M27.71483125 21.777375 c0.15625 0.039063 0.23438 0.084629 0.23438 0.13671 l0 0.097656 l-0.097656 0 l-0.087891 -0.097656 l-0.097656 0 c-0.032549 0.0065136 -0.048828 0.022793 -0.048828 0.048838 l0 0.048828 c0.24089 0.045576 0.36133 0.097656 0.36133 0.15625 l0 0.078125 c0 0.1237 -0.071611 0.18555 -0.21484 0.18555 l-0.097656 0 c-0.084639 0 -0.153 -0.045576 -0.20508 -0.13672 l0 -0.097656 l0.13672 0 c0 0.078125 0.045576 0.11719 0.13672 0.11719 l0.029297 0 c0.019531 0 0.042314 -0.022783 0.068359 -0.068359 c0 -0.019531 -0.11067 -0.074873 -0.33203 -0.16602 l-0.019531 -0.048828 l0 -0.11719 c0 -0.05208 0.078125 -0.097656 0.23438 -0.13672 z M30.644528125 10.000375 l6.8945 0 l0 2.2852 c0 0.032549 -0.016279 0.048828 -0.048828 0.048828 l-4.0918 0 l0 3.0371 l3.6719 0 l0 0.019531 c0 0.091143 -0.016279 0.58594 -0.048828 1.4844 c-0.013018 0 -0.019531 0.0097656 -0.019531 0.029297 l0.16602 0 l0 0.70313 l-3.1836 0 l0 2.8711 l-0.84961 0 l0 0.2832 l0.84961 0 l0 0.86914 l3.6035 0 l0 0.33203 l-0.2832 0 l0 1.7188 l-4.3066 0 l0 0.30273 l-2.0508 0 l0 -5.0098 l-0.30273 0 l0 -1.7676 l-2.2363 0 l0 -0.30273 l2.2363 0 l0 -6.9043 z M30.664028125 16.904275 l0 0.30273 l1.1523 0 l0 -0.30273 l-1.1523 0 z M34.199228125 20.927775 l0.16602 -0.0000095367 l0 0.23438 l0.019531 0 c0 -0.045576 0.071611 -0.1237 0.21484 -0.23438 l0.16602 0 l-0.23438 0.25391 l0.25391 0.38086 l-0.16602 0 c-0.1237 -0.17578 -0.19206 -0.26367 -0.20508 -0.26367 c-0.032549 0.0065136 -0.048828 0.022793 -0.048828 0.048838 l0 0.21484 l-0.16602 0 l0 -0.63477 z M35.019528125 20.927775 l0.33203 0 c0.10417 0 0.17578 0.061846 0.21484 0.18555 c0 0.019531 -0.032549 0.074873 -0.097656 0.16602 c0.045576 0 0.078125 0.094404 0.097656 0.2832 l-0.11719 0 c-0.032549 0 -0.058594 -0.078125 -0.078125 -0.23438 l-0.18555 0 l0 0.23438 l-0.16602 0 l0 -0.63477 z M36.084028125 20.927775 l0.0879 -0.0000095367 c0.14323 0 0.23112 0.094404 0.26367 0.2832 l0 0.087891 c0 0.05208 -0.022783 0.10742 -0.068359 0.16602 l0 0.029297 c0.045576 0 0.068359 0.013018 0.068359 0.039063 s-0.022783 0.05209 -0.068359 0.078135 c-0.026045 0 -0.05209 -0.026045 -0.078135 -0.078125 l-0.11719 0.029297 l-0.087891 0 c-0.15625 0 -0.24414 -0.11719 -0.26367 -0.35156 c0.045576 -0.1888 0.13347 -0.2832 0.26367 -0.2832 z M35.986328125 21.210975 l0 0.068369 c0 0.11067 0.055342 0.16602 0.16602 0.16602 l0.019531 0 l0 -0.029297 l-0.039063 0 l0 -0.019531 c0 -0.026045 0.022783 -0.048828 0.068359 -0.068359 l0.068359 0.039063 c0 -0.0065136 0.0065136 -0.05209 0.019531 -0.13673 c-0.0065136 -0.1237 -0.068359 -0.18555 -0.18555 -0.18555 c-0.078125 0.019531 -0.11719 0.074873 -0.11719 0.16602 z M35.185528125 21.064475 l0 0.14648 l0.16602 0 c0.032549 0 0.048828 -0.016279 0.048828 -0.048828 l0 -0.048828 c0 -0.032549 -0.016279 -0.048828 -0.048828 -0.048828 l-0.16602 0 z M37.451128125 22.099575 l0.13672 0 l0 0.029297 c0 0.27995 -0.022783 0.41992 -0.068359 0.41992 s-0.068359 -0.10091 -0.068359 -0.30273 l0 -0.14648 z M37.451128125 22.568375 l0.13672 0 l0 0.14648 l-0.13672 0 l0 -0.14648 z M38.6328175 9.990375 l2.8613 0 c0.039063 0 0.34505 0.7487 0.91797 2.2461 c0.05208 0.05208 0.65104 1.5267 1.7969 4.4238 l0.73242 0 l0 -6.6699 l2.5098 0 l0 7.9395 l0.2832 0 l0 3.0957 l-1.0156 0 l0 0.5957 l1.0156 0 l0 1.8457 l-3.7598 0 l0 -2.3438 l-0.66406 0 c-0.89844 -2.194 -1.5039 -3.7077 -1.8164 -4.541 l0 -2.3633 l-0.35156 0 l0 7.1875 l-0.56641 0 l0 2.4805 l-2.3438 0 l0 -5.3418 l0.42969 0 l0 -0.019531 c-0.019531 -4.6094 -0.029297 -7.4544 -0.029297 -8.5352 z M47.5683375 14.335975 l0.26366 0 c0.1237 0 0.18555 0.065107 0.18555 0.19531 c0 0.045576 -0.022783 0.068359 -0.068359 0.068359 c0.045576 0.058594 0.068359 0.13021 0.068359 0.21484 l0 0.048828 l-0.11719 0 c-0.013018 -0.13021 -0.035801 -0.19531 -0.06835 -0.19531 l-0.11719 0 l0 0.19531 l-0.14648 0 l0 -0.52734 z M47.7148375 14.453075 l0 0.12695 l0.11719 0 c0.032549 0 0.048828 -0.016279 0.048828 -0.048828 l0 -0.078125 l-0.16602 0 z M47.5683375 15.048875 l0.40038 0 l0 0.11719 l-0.13672 0 l0 0.40039 l-0.14648 0 l0 -0.40039 l-0.11719 0 c-0.032549 0 -0.048828 -0.016279 -0.048828 -0.048828 l0 -0.019531 c0.0065136 -0.032549 0.022793 -0.048828 0.048838 -0.048828 z M47.5195375 15.761675 l0.097656 0 c0.039063 0 0.078125 0.10091 0.11719 0.30273 l0.048828 0 l0.068359 -0.30273 l0.14648 0 l-0.16602 0.51758 l-0.11719 0 c-0.039063 0 -0.10417 -0.17253 -0.19531 -0.51758 z M47.5488375 16.464875 l0.13671 0.0000095367 c0.0065136 0.058594 0.039063 0.10742 0.097656 0.14648 c0.05208 -0.097656 0.091143 -0.14648 0.11719 -0.14648 l0.097656 0 l0 0.029297 c-0.097656 0.14323 -0.14648 0.22787 -0.14648 0.25392 c0.026045 0.0065136 0.081387 0.084639 0.16603 0.23438 l-0.16602 0 c0 -0.045576 -0.029297 -0.091152 -0.087891 -0.13673 c-0.058594 0.091143 -0.10091 0.13672 -0.12695 0.13672 l-0.11719 0 c0.11067 -0.16276 0.16602 -0.2474 0.16602 -0.25392 c-0.091143 -0.14974 -0.13672 -0.23763 -0.13672 -0.26367 z M42.8418375 16.660175 l0 0.51758 l1.5625 0 c-0.1237 -0.34505 -0.20183 -0.51758 -0.23438 -0.51758 l-1.3281 0 z M44.9707375 16.660175 l0 0.51757 l-0.54688 0 c0.33203 0.83333 0.5306 1.377 0.5957 1.6309 l0.019531 0 l0 -0.068359 c-0.045576 -0.85286 -0.068359 -1.3737 -0.068359 -1.5625 l1.1328 0 l0 -0.51758 l-1.1328 0 z M47.5683375 17.177775 l0.23438 0 c0.16276 0.019531 0.24414 0.097656 0.24414 0.23438 l0 0.019531 c0 0.17578 -0.071611 0.26367 -0.21484 0.26367 l-0.26367 0 l0 -0.51758 z M47.7148375 17.294875 l0 0.30273 c0.1237 0 0.18555 -0.045576 0.18555 -0.13672 l0 -0.029297 c0 -0.078125 -0.022783 -0.1237 -0.068359 -0.13672 l-0.11719 0 z M43.4570375 21.269575 l0.35155 -0.000019073 l0 0.11719 l-0.25391 0 l0 0.087891 l0.20508 0 c0.032549 0.0065136 0.048828 0.022793 0.048828 0.048838 l0 0.029297 c0 0.032549 -0.016279 0.048828 -0.048828 0.048828 l-0.20508 0 l0 0.087891 l0.23438 0 c0.032549 0.0065136 0.048828 0.022793 0.048828 0.048838 l0 0.019531 c0 0.032549 -0.016279 0.048828 -0.048828 0.048828 l-0.33203 0 c-0.032549 0 -0.048828 -0.016279 -0.048828 -0.048828 l0 -0.44922 c0.0065136 -0.026045 0.022793 -0.039063 0.048838 -0.039063 z M40.6152375 21.523475 l0.14648 0 c0.065107 0.19531 0.097656 0.30599 0.097656 0.33203 l0.019531 0 c0.039063 -0.22136 0.078125 -0.33203 0.11719 -0.33203 l0.097656 0 l0 0.029297 c-0.097656 0.33203 -0.1595 0.49805 -0.18555 0.49805 l-0.12695 0 c0 -0.045576 -0.055342 -0.22136 -0.16602 -0.52734 z M43.6425375 21.972675 l0.048818 -0.0000095367 c0.032549 0.0065136 0.048828 0.022793 0.048828 0.048838 l0 0.3125 c0 0.084639 -0.039063 0.14648 -0.11719 0.18555 l-0.068359 0 c-0.11067 0 -0.16602 -0.055342 -0.16602 -0.16602 l0 -0.048828 l0.11719 0 c0 0.065107 0.016279 0.097656 0.048828 0.097656 l0.039063 0 l0 -0.38086 c0.0065136 -0.032549 0.022793 -0.048828 0.048838 -0.048828 z M43.4570375 22.685575 l0.048819 0 c0.032549 0 0.048828 0.061846 0.048828 0.18555 l0.20508 -0.18555 l0.12695 0 l0 0.019531 l-0.19531 0.21484 c0.019531 0 0.091143 0.094404 0.21484 0.2832 l-0.048828 0.029297 l-0.068359 0 c-0.019531 0 -0.084639 -0.071611 -0.19531 -0.21484 c-0.026045 0 -0.048828 0.071611 -0.068359 0.21484 l-0.068359 0 c-0.032549 0 -0.048828 -0.016279 -0.048828 -0.048828 l0 -0.44922 c0.0065136 -0.032549 0.022793 -0.048828 0.048838 -0.048828 z M43.9746375 23.720675 l4.541 0 l0 0.26367 l-4.541 0 l0 -0.26367 z M48.369136875 9.990375 l8.2031 0 l0 2.334 l-2.7148 0 l0 9.6777 l1.2305 0 l0 0.2832 l-1.2305 0 l0 1.0645 l-0.73242 0 l0 0.37109 l0.51758 0 l0 0.26367 l-2.4902 0 c-0.032549 0 -0.048828 -0.016279 -0.048828 -0.048828 l0 -11.611 l-2.7344 0 l0 -2.334 z M52.890596875 22.001975 l0 0.2832 l0.94727 0 l0 -0.2832 l-0.94727 0 z M56.181636875 9.980375 l2.6953 0 l0 7.4023 l-1.2695 0 l0 0.40039 l1.2695 0 l0 1.377 c0 1.263 0.22461 2.002 0.67383 2.2168 c0.22786 0.13672 0.51106 0.20508 0.84961 0.20508 l0.83008 0 l0 -2.4414 l0.74219 0 l0 -9.1602 l2.6758 0 l0 8.6035 l-0.9668 0 l0 0.625 l0.9668 0 c-0.013018 0.20833 -0.019531 0.36133 -0.019531 0.45898 l0 2.7441 l-1.4063 0 l0 1.5723 l-6.2598 0 l0 -1.9336 l-0.57617 0 l0 -5.791 l-0.20508 0 l0 -6.2793 z M58.876996875 17.382775 l1.5234 0 l0 0.40039 l-1.5234 0 l0 -0.40039 z M63.359396875 22.529275 l0.087881 0 c0.039063 0 0.078125 0.10742 0.11719 0.32227 l0.019531 0 c0.065107 -0.1888 0.097656 -0.29622 0.097656 -0.32227 l0.13672 0 c-0.097656 0.35808 -0.16602 0.53711 -0.20508 0.53711 l-0.068359 0 c-0.032549 0 -0.094395 -0.17903 -0.18554 -0.53711 z M65.66405875 9.990375 l3.9746 0.0000095367 c1.7644 0 2.8874 0.44597 3.3691 1.3379 c0.27344 0.46875 0.41016 1.1067 0.41016 1.9141 l0 0.97656 c0 0.91797 -0.40039 1.6602 -1.2012 2.2266 c0.27344 0.045576 0.61849 0.25391 1.0352 0.625 l0.30273 0 c0.39714 0.40364 0.6543 0.79427 0.77148 1.1719 c0.032549 0.13021 0.048828 0.20182 0.048828 0.21483 l0.38086 0 l0 0.23438 l-1.2695 0 l0 -0.23438 l-2.6074 0 l0 -0.74219 l-2.5586 0 l0 4.0723 l1.6016 0 l0 -0.29297 l0.95703 0 l0 -2.8027 l2.6074 0 l0 2.4707 l0.29297 0 l0 1.5527 l-0.86914 0 l0 0.36133 l0.86914 0 l0 0.64453 l-3.3105 0 l0 0.26367 l-3.6133 0 l0 -0.26367 l-0.78125 0 l0 -2.1484 l1.0742 0 l0 -0.57617 l-1.0742 0 c-0.019531 -1.0938 -0.029297 -1.9075 -0.029297 -2.4414 l0 -1.0352 l-0.9082 0 l0 -0.26367 l0.9082 0 l0 -0.54688 l-0.42969 0 l0 -6.6699 c0.0065136 -0.032549 0.022793 -0.048828 0.048838 -0.048828 z M68.36911875 12.353375 l-0.0000095367 3.4668 l0.5957 0 c0.70313 0 1.1653 -0.11719 1.3867 -0.35156 c0.22136 -0.1888 0.33203 -0.69986 0.33203 -1.5332 l0 -0.048828 c0 -0.71614 -0.11067 -1.1458 -0.33203 -1.2891 c-0.14974 -0.16276 -0.6608 -0.24414 -1.5332 -0.24414 l-0.44922 0 z M66.07419875 17.255875 l0 0.26367 l1.2891 0 l0 -0.26367 l-1.2891 0 z M65.54685875 17.568375 l0.47852 -0.0000095367 l0 0.097656 c0 0.032549 -0.016279 0.048828 -0.048828 0.048828 l-0.29297 0 l0 0.097656 l0.26367 0 c0.032549 0.0065136 0.048828 0.022793 0.048828 0.048838 l0 0.048828 c0 0.032549 -0.016279 0.048828 -0.048828 0.048828 l-0.26367 0 l0 0.11719 l0.3418 0 l0 0.097656 c0 0.026045 -0.016279 0.039063 -0.048828 0.039063 l-0.42969 0 l0 -0.64453 z M69.56051875 18.457075 l1.3184 0 l0 0.23438 l-1.3184 0 l0 -0.23438 z M73.86721875 18.740275 l0.078106 -0.0000095367 c0.032549 0.0065136 0.048828 0.022793 0.048828 0.048838 l0 0.41016 c-0.026045 0.14323 -0.097656 0.21484 -0.21484 0.21484 c-0.14974 -0.026045 -0.22461 -0.097656 -0.22461 -0.21484 l0 -0.029297 c0.0065136 -0.026045 0.022793 -0.039063 0.048838 -0.039063 l0.048828 0 c0.032549 0 0.058594 0.045576 0.078125 0.13672 l0.087891 0 l0 -0.47852 c0.0065136 -0.032549 0.022793 -0.048828 0.048838 -0.048828 z M73.65231875 19.580075 l0.1953 -0.0000095367 c0.22136 0 0.33203 0.12044 0.33203 0.36133 c0 0.16276 -0.10417 0.25717 -0.3125 0.28321 l-0.26367 0 l0 -0.5957 c0.0065136 -0.032549 0.022793 -0.048828 0.048838 -0.048828 z M73.77931875 19.726575 l0 0.36133 l0.087891 0 c0.097656 0 0.14648 -0.048828 0.14648 -0.14648 l0 -0.048828 c0 -0.11067 -0.055342 -0.16602 -0.16602 -0.16602 l-0.068359 0 z M73.65231875 20.419875 l0.36132 -0.0000095367 c0.032549 0.0065136 0.048828 0.022793 0.048828 0.048838 l0 0.097656 l-0.2832 0 l0 0.11719 l0.23438 0 l0 0.11719 l-0.23438 0 l0 0.21484 c0 0.032549 -0.016279 0.048828 -0.048828 0.048828 l-0.12695 0 l0 -0.5957 c0.0065136 -0.032549 0.022793 -0.048828 0.048838 -0.048828 z M70.30261875 20.800775 l0.50781 0 l0 0.11719 l-0.3125 0.39063 l0.33203 0 l0 0.087891 c0 0.032549 -0.016279 0.048828 -0.048828 0.048828 l-0.44922 0 c-0.032549 0 -0.048828 -0.016279 -0.048828 -0.048828 l0 -0.068359 l0.3125 -0.38086 l-0.24414 0 c-0.032549 0 -0.048828 -0.016279 -0.048828 -0.048828 l0 -0.097656 z M68.38861875 21.210975 l0.029287 0.0000095367 c0.29948 0.091143 0.44922 0.15299 0.44922 0.18554 l0 0.048828 c-0.032549 0.045576 -0.18229 0.11719 -0.44921 0.21484 l-0.029297 -0.048828 l0 -0.019531 c0 -0.045576 0.097656 -0.094404 0.29297 -0.14648 c0 -0.032549 -0.097656 -0.078125 -0.29297 -0.13672 l0 -0.097656 z M76.035153125 10.000375 l6.8945 0 l0 2.2852 c0 0.032549 -0.016279 0.048828 -0.048828 0.048828 l-4.0918 0 l0 3.0371 l3.6719 0 l0 0.019531 c0 0.091143 -0.016279 0.58594 -0.048828 1.4844 c-0.013018 0 -0.019531 0.0097656 -0.019531 0.029297 l0.16602 0 l0 0.70313 l-3.1836 0 l0 2.8711 l-0.84961 0 l0 0.2832 l0.84961 0 l0 0.86914 l3.6035 0 l0 0.33203 l-0.2832 0 l0 1.7188 l-4.3066 0 l0 0.30273 l-2.0508 0 l0 -5.0098 l-0.30273 0 l0 -1.7676 l-2.2363 0 l0 -0.30273 l2.2363 0 l0 -6.9043 z M76.054653125 16.904275 l0 0.30273 l1.1523 0 l0 -0.30273 l-1.1523 0 z M79.589853125 20.927775 l0.16602 -0.0000095367 l0 0.23438 l0.019531 0 c0 -0.045576 0.071611 -0.1237 0.21484 -0.23438 l0.16602 0 l-0.23438 0.25391 l0.25391 0.38086 l-0.16602 0 c-0.1237 -0.17578 -0.19206 -0.26367 -0.20508 -0.26367 c-0.032549 0.0065136 -0.048828 0.022793 -0.048828 0.048838 l0 0.21484 l-0.16602 0 l0 -0.63477 z M80.410153125 20.927775 l0.33203 0 c0.10417 0 0.17578 0.061846 0.21484 0.18555 c0 0.019531 -0.032549 0.074873 -0.097656 0.16602 c0.045576 0 0.078125 0.094404 0.097656 0.2832 l-0.11719 0 c-0.032549 0 -0.058594 -0.078125 -0.078125 -0.23438 l-0.18555 0 l0 0.23438 l-0.16602 0 l0 -0.63477 z M81.474653125 20.927775 l0.0879 -0.0000095367 c0.14323 0 0.23112 0.094404 0.26367 0.2832 l0 0.087891 c0 0.05208 -0.022783 0.10742 -0.068359 0.16602 l0 0.029297 c0.045576 0 0.068359 0.013018 0.068359 0.039063 s-0.022783 0.05209 -0.068359 0.078135 c-0.026045 0 -0.05209 -0.026045 -0.078135 -0.078125 l-0.11719 0.029297 l-0.087891 0 c-0.15625 0 -0.24414 -0.11719 -0.26367 -0.35156 c0.045576 -0.1888 0.13347 -0.2832 0.26367 -0.2832 z M81.376953125 21.210975 l0 0.068369 c0 0.11067 0.055342 0.16602 0.16602 0.16602 l0.019531 0 l0 -0.029297 l-0.039063 0 l0 -0.019531 c0 -0.026045 0.022783 -0.048828 0.068359 -0.068359 l0.068359 0.039063 c0 -0.0065136 0.0065136 -0.05209 0.019531 -0.13673 c-0.0065136 -0.1237 -0.068359 -0.18555 -0.18555 -0.18555 c-0.078125 0.019531 -0.11719 0.074873 -0.11719 0.16602 z M80.576153125 21.064475 l0 0.14648 l0.16602 0 c0.032549 0 0.048828 -0.016279 0.048828 -0.048828 l0 -0.048828 c0 -0.032549 -0.016279 -0.048828 -0.048828 -0.048828 l-0.16602 0 z M82.841753125 22.099575 l0.13672 0 l0 0.029297 c0 0.27995 -0.022783 0.41992 -0.068359 0.41992 s-0.068359 -0.10091 -0.068359 -0.30273 l0 -0.14648 z M82.841753125 22.568375 l0.13672 0 l0 0.14648 l-0.13672 0 l0 -0.14648 z"></path></g>
</svg>