<?xml version="1.0" encoding="utf-8"?>
<!-- Generator: Adobe Illustrator 23.0.0, SVG Export Plug-In . SVG Version: 6.00 Build 0)  -->
<svg version="1.1" id="Capa_1" xmlns="http://www.w3.org/2000/svg" xmlns:xlink="http://www.w3.org/1999/xlink" x="0px" y="0px"
	 viewBox="0 0 512 512" style="enable-background:new 0 0 512 512;" xml:space="preserve">
<style type="text/css">
	.st0{fill:#3F51B5;}
	.st1{fill:#0377BC;}
	.st2{fill:#02A9F4;}
	.st3{fill:#CFD8DC;}
	.st4{fill:#FEC108;stroke:#000000;stroke-width:9;stroke-miterlimit:10;}
</style>
<g>
	<g>
		<g transform="translate(1 1)">
			<path class="st0" d="M502.4,255c0,2.9-0.1,5.7-0.3,8.5c-0.5,17.3-3.1,34.5-7.6,51.2c-1.5,5.8-3.3,11.5-5.3,17.1
				c-6.4,18.1-15,35.3-25.7,51.2c-3.9,5.9-8.2,11.6-12.6,17.1c-43.7,54-109.5,85.4-178.9,85.3c-5.7,0-11.4-0.2-17.1-0.7V25.3
				c5.6-0.5,11.3-0.7,17.1-0.7c69.5,0,135.2,31.3,178.9,85.3c4.5,5.5,8.7,11.2,12.6,17.1c10.7,15.9,19.3,33.1,25.7,51.2
				c2,5.5,3.8,11.3,5.3,17.1c4.5,16.7,7.1,33.9,7.6,51.2C502.3,249.3,502.4,252.1,502.4,255z"/>
			<circle class="st1" cx="237.9" cy="255" r="230.4"/>
			<ellipse class="st2" cx="225.1" cy="255" rx="217.6" ry="230.4"/>
			<path class="st3" d="M237.9,417.1c-89.5,0-162.1-72.6-162.1-162.1S148.4,92.8,237.9,92.8S400,165.4,400,255
				C399.9,344.5,327.4,417,237.9,417.1z"/>
		</g>
		<g>
			<path d="M409.6,256c-0.3-80.3-56.3-149.7-134.7-166.9c-11.2-2.4-22.6-3.6-34.1-3.7l-0.5,0c-0.3,0-1.1-0.1-1.4-0.1
				C145,85.3,68.7,161.2,68.2,255c-0.5,93.9,74.9,170.5,168.8,171.5l0.9,0c0.4,0,0.8,0.1,1,0.1c12.6,0,25.2-1.4,37.6-4.1
				c1.5-0.3,2.9-0.7,5.1-1.3C357,401.8,409.6,333.8,409.6,256z M272.8,405.9c-10.8,2.4-21.9,3.7-33,3.7l-0.6-0.1c-0.2,0-0.5,0-0.7,0
				l-1.3,0c-84.3-0.9-152.1-69.7-151.9-154S153.7,102.8,238,102.3c0.2,0,1,0.1,1.3,0.1l1.2,0c84.3,0.6,152.2,69.3,152,153.5
				c0,70.2-47.6,131.5-115.6,148.9C275.4,405.3,274.1,405.6,272.8,405.9z"/>
			<path d="M238.9,68.3c1.1,0,2.2-0.2,3.2-0.7c1-0.4,2-1,2.8-1.8c1.6-1.6,2.4-3.8,2.5-6.1c0-1.1-0.2-2.2-0.7-3.2c-0.4-1-1-2-1.8-2.8
				c-0.8-0.8-1.8-1.4-2.8-1.8c-3.2-1.3-6.8-0.6-9.3,1.8c-0.8,0.8-1.4,1.8-1.8,2.8c-0.4,1-0.7,2.1-0.7,3.2c0,2.3,0.9,4.5,2.5,6.1
				S236.6,68.3,238.9,68.3z"/>
			<path d="M245,446.2c-0.8-0.8-1.8-1.4-2.8-1.8c-3.2-1.3-6.8-0.6-9.3,1.8c-0.8,0.8-1.4,1.8-1.8,2.8c-0.4,1-0.7,2.1-0.7,3.2
				c0,2.3,0.9,4.5,2.5,6.1s3.8,2.5,6.1,2.5c1.1,0,2.2-0.2,3.2-0.7c1-0.4,2-1,2.8-1.8c1.6-1.6,2.4-3.8,2.5-6.1c0-1.1-0.2-2.2-0.7-3.2
				C246.3,448,245.7,447,245,446.2z"/>
			<path d="M182.1,72.4c1.6,1.6,3.8,2.5,6.1,2.5c2.2,0,4.4-0.9,6-2.5c1.6-1.6,2.6-3.8,2.6-6.1c0-0.5-0.1-1.1-0.2-1.6
				c-0.1-0.6-0.3-1.1-0.5-1.6c-0.2-0.5-0.5-1-0.8-1.5c-0.3-0.5-0.7-0.9-1.1-1.3c-3.4-3.2-8.7-3.2-12,0c-1.6,1.6-2.5,3.7-2.5,6
				c0,1.1,0.2,2.3,0.6,3.3C180.6,70.7,181.3,71.6,182.1,72.4z"/>
			<path d="M295.7,451.6c0.4-0.3,0.8-0.8,1-1.3c0.3-0.5,0.6-0.9,0.9-1.5c0.2-0.5,0.3-1.1,0.4-1.6c0.1-0.5,0.2-1.1,0.2-1.6
				c0-2.3-0.9-4.5-2.5-6.1c-1.6-1.6-3.7-2.5-6-2.5c-2.3,0-4.4,0.9-6,2.5c-1.6,1.6-2.6,3.8-2.6,6.1c0,2.3,0.9,4.4,2.6,6
				c0.8,0.8,1.7,1.5,2.7,1.9C289.6,454.8,293.3,454.1,295.7,451.6L295.7,451.6z"/>
			<path d="M132.9,89.2c0.2,0.5,0.4,1.1,0.8,1.5l1,1.3c0.4,0.4,0.8,0.7,1.3,1c0.5,0.3,1,0.6,1.5,0.9c0.5,0.2,1,0.3,1.5,0.4
				c0.6,0.1,1.1,0.2,1.7,0.2c1.1,0,2.2-0.2,3.2-0.6c1-0.5,2-1.1,2.8-1.9c1.6-1.6,2.5-3.8,2.5-6.1c0-1.1-0.2-2.2-0.7-3.2
				c-0.8-2.1-2.5-3.8-4.6-4.6c-1.6-0.7-3.3-0.9-4.9-0.5c-0.5,0.1-1.1,0.3-1.5,0.5c-0.5,0.2-1.1,0.4-1.5,0.8c-0.4,0.3-0.9,0.7-1.3,1
				c-0.8,0.8-1.4,1.8-1.8,2.8c-0.4,1-0.7,2.1-0.7,3.2c0,0.6,0.1,1.1,0.2,1.7C132.5,88.2,132.7,88.8,132.9,89.2z"/>
			<path d="M343.1,419.9c-2-2-5-2.9-7.8-2.3c-0.5,0.1-1.1,0.3-1.5,0.5c-1.1,0.4-2,1-2.8,1.8c-0.8,0.8-1.4,1.8-1.8,2.8
				c-0.4,1-0.7,2.1-0.7,3.2c0,2.3,0.9,4.4,2.5,6.1c0.4,0.3,0.9,0.7,1.3,1c0.5,0.3,1,0.6,1.5,0.8c0.5,0.2,1,0.4,1.5,0.5
				c0.6,0.1,1.1,0.2,1.7,0.2c2.3,0,4.5-0.9,6.1-2.5s2.5-3.8,2.5-6.1c0-1.1-0.2-2.2-0.7-3.2C344.5,421.7,343.9,420.7,343.1,419.9z"/>
			<path d="M96.8,125.1c1.1,0.4,2.2,0.7,3.3,0.7c1.1,0,2.2-0.2,3.2-0.7c1-0.4,2-1.1,2.7-1.9c1.6-1.6,2.6-3.7,2.6-6s-0.9-4.4-2.6-6
				c-1.6-1.6-3.7-2.5-6-2.5s-4.4,0.9-6,2.5c-3.3,3.3-3.3,8.7,0,12C94.8,124,95.8,124.7,96.8,125.1z"/>
			<path d="M371.7,388.8c-1.6,1.6-2.6,3.7-2.6,6c0,2.3,0.9,4.5,2.6,6.1c1.6,1.6,3.7,2.5,6,2.5c1.1,0,2.3-0.2,3.3-0.6
				c1-0.4,1.9-1.1,2.7-1.9c1.6-1.6,2.5-3.8,2.5-6.1c0-2.2-0.9-4.4-2.5-6C380.4,385.5,375,385.5,371.7,388.8z"/>
			<path d="M61.1,161.1c0.2,0.5,0.4,1,0.8,1.4c0.3,0.5,0.7,0.9,1,1.4c1.6,1.6,3.8,2.4,6.1,2.5c2.3,0,4.4-0.9,6.1-2.5
				c0.4-0.4,0.7-0.9,1-1.4c0.3-0.4,0.6-0.9,0.8-1.4c0.2-0.5,0.4-1,0.5-1.5c0.1-0.6,0.2-1.1,0.2-1.7c0-3.5-2.1-6.6-5.3-7.9
				c-3.2-1.3-6.9-0.6-9.3,1.9c-1.6,1.6-2.4,3.8-2.5,6.1c0,0.6,0.1,1.1,0.2,1.7C60.6,160.1,60.8,160.6,61.1,161.1z"/>
			<path d="M402.8,348.1c-1.6,1.6-2.4,3.8-2.5,6.1c0,2.3,0.9,4.4,2.5,6.1c3.4,3.3,8.8,3.3,12.1,0c1.6-1.6,2.5-3.8,2.5-6.1
				c0-3.5-2.1-6.6-5.3-7.9C409,344.9,405.3,345.6,402.8,348.1L402.8,348.1z"/>
			<path d="M55.3,199.1c-3.4-3.2-8.6-3.2-12,0c-0.8,0.8-1.5,1.7-1.9,2.7c-0.4,1.1-0.7,2.2-0.7,3.3c0,2.3,1,4.4,2.6,6.1
				c3.3,3.3,8.7,3.3,12,0c0.8-0.8,1.4-1.8,1.9-2.8c0.4-1,0.6-2.1,0.6-3.2c0-1.1-0.2-2.3-0.6-3.3C56.8,200.9,56.1,199.9,55.3,199.1z"
				/>
			<path d="M428.5,315.3c2.2,0,4.4-0.9,6-2.5c2.5-2.4,3.3-6.1,1.9-9.3c-0.4-1-1.1-2-1.9-2.7c-3.4-3.2-8.7-3.2-12,0
				c-1.6,1.6-2.5,3.7-2.5,6c0,2.3,0.9,4.4,2.5,6.1C424,314.4,426.2,315.3,428.5,315.3z"/>
			<path d="M48.7,262c0.8-0.8,1.4-1.8,1.8-2.8c0.9-2.1,0.9-4.4,0-6.5c-0.4-1-1-2-1.8-2.8c-3.4-3.2-8.7-3.2-12.1,0
				c-0.8,0.8-1.4,1.8-1.8,2.8c-0.9,2.1-0.9,4.4,0,6.5c0.4,1,1,2,1.8,2.8C39.9,265.3,45.3,265.3,48.7,262L48.7,262z"/>
			<path d="M431.9,248.1c-1,0.4-2,1-2.8,1.8c-3.3,3.4-3.3,8.8,0,12.1c0.8,0.8,1.8,1.4,2.8,1.8c1,0.4,2.1,0.7,3.2,0.7
				c3.5,0,6.6-2.1,7.9-5.3c1.3-3.2,0.6-6.9-1.8-9.3C438.8,247.5,435.1,246.8,431.9,248.1z"/>
			<path d="M43.3,300.8c-3.3,3.3-3.2,8.7,0.1,12c3.3,3.3,8.6,3.3,12,0.1c1.6-1.6,2.5-3.8,2.5-6.1c0-2.2-0.9-4.4-2.5-6
				C52,297.5,46.7,297.5,43.3,300.8z"/>
			<path d="M428.5,213.7c4.7-0.1,8.4-3.9,8.5-8.5c0-1.1-0.2-2.2-0.7-3.2c-0.4-1.1-1-2-1.9-2.8c-1.6-1.6-3.7-2.6-6-2.6
				s-4.4,0.9-6,2.6c-1.6,1.6-2.5,3.8-2.5,6.1c0,2.2,0.9,4.4,2.5,6C424,212.8,426.2,213.8,428.5,213.7z"/>
			<path d="M75,348.1c-0.4-0.4-0.8-0.7-1.3-1c-0.5-0.3-1-0.6-1.5-0.8c-0.5-0.2-1-0.4-1.5-0.5c-2.8-0.5-5.7,0.3-7.8,2.3
				c-0.8,0.8-1.4,1.8-1.8,2.8c-0.4,1-0.7,2.1-0.7,3.2c0,2.3,0.9,4.5,2.5,6.1c1.6,1.6,3.8,2.5,6.1,2.5c2.3,0,4.4-0.9,6.1-2.5
				c1.6-1.6,2.4-3.8,2.5-6.1c0-1.1-0.2-2.2-0.7-3.2C76.3,349.8,75.7,348.9,75,348.1z"/>
			<path d="M408.9,166.4c4,0,7.5-2.9,8.2-6.9c0.8-4-1.4-7.9-5.1-9.4s-8-0.2-10.2,3.1c-2.2,3.4-1.8,7.8,1.1,10.7
				C404.5,165.5,406.6,166.3,408.9,166.4z"/>
			<path d="M103.4,386.9c-2.1-0.9-4.5-0.9-6.6,0c-1,0.4-2,1.1-2.7,1.9c-3.3,3.3-3.3,8.7,0,12c0.8,0.8,1.7,1.4,2.7,1.9
				c1.1,0.4,2.2,0.6,3.3,0.6c1.1,0,2.2-0.2,3.2-0.6c1-0.4,2-1.1,2.7-1.9c1.6-1.6,2.6-3.7,2.6-6c0-2.3-0.9-4.4-2.6-6
				C105.4,387.9,104.4,387.3,103.4,386.9z"/>
			<path d="M377.6,125.8c1.1,0,2.3-0.2,3.3-0.7c1-0.4,2-1.1,2.7-1.9c1.6-1.6,2.5-3.7,2.5-6c0-2.3-0.9-4.4-2.5-6.1
				c-3.4-3.2-8.6-3.2-12,0c-1.6,1.6-2.6,3.8-2.6,6.1C369.2,121.9,373,125.6,377.6,125.8L377.6,125.8z"/>
			<path d="M144,418c-3.2-1.3-6.8-0.5-9.3,1.9c-1.6,1.6-2.4,3.8-2.5,6.1c0,1.1,0.2,2.2,0.7,3.2c0.4,1,1,2,1.8,2.8
				c1.6,1.6,3.8,2.4,6.1,2.5c1.1,0,2.2-0.2,3.2-0.7c2.1-0.8,3.8-2.5,4.6-4.6c0.5-1,0.7-2.1,0.7-3.2c0-2.3-0.9-4.4-2.5-6.1
				C146,419.2,145,418.5,144,418z"/>
			<path d="M332.3,93.1c0.5,0.3,1,0.6,1.5,0.8c0.5,0.2,1,0.4,1.5,0.5c0.6,0.1,1.1,0.2,1.7,0.2c2.3,0,4.4-0.9,6.1-2.5
				c3.3-3.4,3.3-8.8,0-12.1c-2.1-2-5-2.8-7.8-2.3c-0.5,0.1-1.1,0.3-1.5,0.5c-0.5,0.2-1.1,0.4-1.5,0.8c-0.4,0.3-0.9,0.7-1.3,1
				c-3.3,3.4-3.3,8.8,0,12.1C331.4,92.4,331.8,92.8,332.3,93.1z"/>
			<path d="M194.1,439.5c-2.4-2.5-6.1-3.3-9.3-1.9c-3.2,1.3-5.3,4.5-5.2,8c0,2.2,0.9,4.4,2.5,6c1.6,1.6,3.8,2.5,6.1,2.6
				c4.7-0.1,8.4-3.9,8.5-8.5c0-1.1-0.3-2.3-0.7-3.3C195.6,441.2,194.9,440.3,194.1,439.5z"/>
			<path d="M281.8,69.7c0.2,0.5,0.4,1,0.8,1.4c0.3,0.4,0.7,0.9,1.1,1.3c0.8,0.8,1.7,1.4,2.7,1.9c3.2,1.2,6.8,0.5,9.3-1.9
				c0.4-0.4,0.7-0.8,1-1.3c0.3-0.5,0.6-0.9,0.9-1.4c0.2-0.5,0.3-1.1,0.4-1.6c0.1-0.6,0.2-1.1,0.2-1.7c0-2.2-0.9-4.4-2.5-6
				c-2.5-2.4-6.1-3.1-9.3-1.9c-1,0.4-2,1.1-2.7,1.9c-1.6,1.6-2.6,3.7-2.6,6c0,0.6,0.1,1.1,0.2,1.7C281.4,68.6,281.6,69.2,281.8,69.7
				z"/>
			<path d="M500.9,184.2c-8-25.3-20.2-49.1-36-70.4c-0.1-0.1-0.2-0.3-0.3-0.4C419.6,52.8,348.5,17.1,273,17
				c-6.5,0-12.1,0.2-17.3,0.7c-4.5-0.3-9-0.5-13.5-0.6c-1.1-0.1-2.2-0.1-3.3-0.1C107.6,17,0.9,123,0,254.3S104.3,493,235.6,494.8
				c1.1,0.1,2.2,0.1,3.3,0.1c5.7,0,11.4-0.3,17.1-0.7c5.1,0.4,10.7,0.7,17.1,0.7c75.5,0,146.6-35.7,191.6-96.3
				c0.1-0.1,0.2-0.3,0.3-0.4c15.8-21.3,28-45.1,36-70.4c0.1-0.2,0.1-0.4,0.2-0.6c14.4-46.4,14.4-96,0-142.4
				C501.1,184.6,501,184.4,500.9,184.2z M486.7,315.7h-16.4c4.2-16.8,6.7-33.9,7.2-51.2h17.2C494,281.8,491.3,299,486.7,315.7z
				 M454.1,384h-13.5c10.2-16,18.4-33.2,24.5-51.2h16C474.4,351,465.3,368.2,454.1,384L454.1,384z M481.2,179.2h-16.3
				c-6.2-18-14.5-35.2-24.8-51.2h14C465.3,143.8,474.4,161,481.2,179.2z M477.5,247.4c-0.6-17.3-3-34.5-7.4-51.2h16.6
				c4.7,16.7,7.4,33.9,8,51.2H477.5z M440.7,110.9h-12.5c-16.4-21.4-36.3-39.9-58.8-54.8C396.6,69.4,420.9,88,440.7,110.9z
				 M236.5,477.8c-122.1-1.3-220.1-101-219.5-223c0.7-122.1,99.8-220.7,221.9-220.6h0.4c0.5,0,1,0,2,0.1
				C363,35.2,461,134.3,460.8,256c0,101.3-68.6,189.8-166.7,215c-2.1,0.5-4.2,1.1-6.3,1.6c-16,3.6-32.4,5.4-48.8,5.3
				C238.3,477.8,237.8,477.9,236.5,477.8L236.5,477.8z M372,454.5c21.7-14.6,40.9-32.6,56.7-53.4h11.9
				C421.5,423.2,398.2,441.3,372,454.5z"/>
		</g>
	</g>
	<path id="path1031484" class="st4" d="M323.4,214.7c-8.1-12.7-19.3-22.7-33.7-29.8c-14.6-6.8-31.2-10.5-49.7-10.5h-80.8V213H238
		c14.6,0,26.4,4.2,35.1,12.5c8.8,8.5,13.4,20,13.4,34.4c0,14.7-4.6,26.1-13.4,34.4c-8.8,8.3-20.5,12.5-35.1,12.5h-30.5v-45.4h-48.3
		v84.1h80.8c18.5,0,35.1-3.4,49.8-10.5c14.4-6.8,25.6-16.9,33.7-29.8c7.8-12.7,12-27.8,12-45.3C335.5,242.8,331.4,227.7,323.4,214.7
		z"/>
</g>
</svg>
